PathFileType	4	(X/Y/Z)	Kaydara	
DataRate	CameraRate	NumFrames	NumMarkers	Units	OrigDataRate	OrigDataStartFrame	OrigNumFrames	
60.00	60.00	4	74	mm	60.00	952	200	
Frame#	Time	N_lasi			N_rasi			N_rpsi			N_lpsi			N_fneck			N_bneck			N_fhead			N_rhead			N_lhead			N_rshld			N_relbtop			N_relbext			N_relblow			N_rwrext			N_rwrtop			N_rwrlow			N_lshld			N_lelbext			N_lelbtop			N_lwrext			N_lwrtop			N_lwrlow			N_rtopleg			N_ltopleg			N_rkneefr			N_rkneebk			N_rkneeis			N_lkneefr			N_lknssbk			N_lkneeis			N_rankfr			N_rankis			N_rankbk			N_lankfr			N_lankbk			N_lankis			Z_lasi			Z_rasi			Z_rpsi			Z_lpsi			Z_fneck			Z_bneck			Z_fhead			Z_rhead			Z_lhead			Z_rshld			Z_relbtop			Z_relbext			Z_relblow			Z_rwrext			Z_rwrtop			Z_rwrlow			Z_lshld			Z_lelbext			Z_lelblow			Z_lelbtop			Z_lwrext			Z_lwrtop			Z_lwrlow			Z_rtopleg			Z_ltopleg			Z_rkneefr			Z_rkneebk			Z_rkneeis			Z_lkneefr			Z_lknssbk			Z_lkneeis			Z_rankfr			Z_rankis			Z_lankfr			Z_lankbk			Z_lankis			N_lelblow			Z_rankbk			
		X1	Y1	Z1	X2	Y2	Z2	X3	Y3	Z3	X4	Y4	Z4	X5	Y5	Z5	X6	Y6	Z6	X7	Y7	Z7	X8	Y8	Z8	X9	Y9	Z9	X10	Y10	Z10	X11	Y11	Z11	X12	Y12	Z12	X13	Y13	Z13	X14	Y14	Z14	X15	Y15	Z15	X16	Y16	Z16	X17	Y17	Z17	X18	Y18	Z18	X19	Y19	Z19	X20	Y20	Z20	X21	Y21	Z21	X22	Y22	Z22	X23	Y23	Z23	X24	Y24	Z24	X25	Y25	Z25	X26	Y26	Z26	X27	Y27	Z27	X28	Y28	Z28	X29	Y29	Z29	X30	Y30	Z30	X31	Y31	Z31	X32	Y32	Z32	X33	Y33	Z33	X34	Y34	Z34	X35	Y35	Z35	X36	Y36	Z36	X37	Y37	Z37	X38	Y38	Z38	X39	Y39	Z39	X40	Y40	Z40	X41	Y41	Z41	X42	Y42	Z42	X43	Y43	Z43	X44	Y44	Z44	X45	Y45	Z45	X46	Y46	Z46	X47	Y47	Z47	X48	Y48	Z48	X49	Y49	Z49	X50	Y50	Z50	X51	Y51	Z51	X52	Y52	Z52	X53	Y53	Z53	X54	Y54	Z54	X55	Y55	Z55	X56	Y56	Z56	X57	Y57	Z57	X58	Y58	Z58	X59	Y59	Z59	X60	Y60	Z60	X61	Y61	Z61	X62	Y62	Z62	X63	Y63	Z63	X64	Y64	Z64	X65	Y65	Z65	X66	Y66	Z66	X67	Y67	Z67	X68	Y68	Z68	X69	Y69	Z69	X70	Y70	Z70	X71	Y71	Z71	X72	Y72	Z72	X73	Y73	Z73	X74	Y74	Z74	

1	15.850	567.77039	1008.40286	-121.88879	792.43965	1002.43973	-159.14938	816.09634	1062.36526	86.86915	573.47740	1063.61671	91.82752	682.80273	1472.18170	-157.52302	703.29987	1552.78641	-34.39022	602.24159	1667.40570	-251.27371	755.09865	1678.40805	-159.96821	618.82782	1681.42883	-81.49071	915.52979	1445.31754	-65.83708	988.56560	1157.09084	39.25924	904.98703	1146.43005	54.82746	956.63811	1150.37247	-24.87322	1003.80356	902.35870	-16.39078	1007.13669	912.88322	-64.64437	962.75887	911.18942	-77.38187	475.21812	1461.09604	-69.95046	388.23689	1149.19350	-146.39908	416.20552	1191.17081	-111.90475	550.76271	1080.81467	-287.30434	562.07039	1130.53238	-302.33007	602.25105	1135.23659	-274.72219	907.61642	877.34085	-37.94328	500.58495	879.24171	-0.14564	845.31502	492.88677	-256.24598	867.05566	486.55914	-136.59769	756.29272	473.24638	-176.35372	687.05826	443.67447	18.72418	601.00502	474.15878	79.27739	723.19817	490.58319	116.22721	866.26450	207.96001	-344.57893	805.26009	189.57329	-307.29538	885.07263	176.15185	-288.71464	686.58264	141.02610	141.28363	710.02197	174.06094	226.21828	747.78740	161.76968	151.02170	-1243.42384	976.59973	655.84549	-1379.38568	1005.15564	849.14185	-1525.04120	1052.29660	709.79561	-1408.07831	1030.72182	558.64204	-1236.39870	1430.45044	714.16649	-1318.96759	1510.94940	677.32681	-1110.53810	1557.09641	761.59401	-1291.15982	1624.35806	782.68631	-1253.32909	1616.73676	656.04935	-1462.69806	1398.28522	865.97511	-1562.78748	1111.48781	890.58632	-1505.95367	1093.47984	851.20232	-1501.40961	1136.37779	943.71834	-1504.60632	876.10840	995.69626	-1478.89496	889.51096	1030.87265	-1439.65591	897.60475	1004.63432	-1200.67688	1385.81375	520.83679	-1233.23715	1058.82339	556.18176	-1144.49875	1084.56970	535.67963	-1203.17734	1048.32413	490.64812	-1110.56259	856.63109	567.59968	-1083.80020	874.54056	595.93060	-1114.46457	876.77338	630.73975	-1496.16150	900.16029	859.50607	-1290.76553	893.14835	572.42027	-1376.19354	451.27628	967.20734	-1456.14746	494.62826	956.10657	-1384.57123	467.61971	868.55064	-1326.79901	402.52277	724.01558	-1336.65695	421.39149	638.98327	-1433.01102	438.26576	708.41896	-1495.62271	208.57323	906.98891	-1504.06342	219.64237	828.59512	-1437.81326	164.22581	718.41324	-1416.77963	152.29848	643.34030	-1481.08917	164.12024	657.46269	496.51176	1182.92824	-105.39618	-1562.65656	227.52201	869.62059 
2	15.867	567.78229	1007.23297	-135.70611	791.90521	1001.11191	-176.98544	819.67087	1058.78647	69.29567	577.02930	1061.42967	78.34586	683.17764	1468.80463	-174.52942	706.14799	1550.06180	-52.26053	601.59367	1664.36035	-267.68988	756.48399	1674.47327	-179.64375	621.94069	1678.71750	-98.24416	917.45132	1441.68945	-86.70371	990.85159	1153.29536	17.57118	907.56836	1142.32666	33.70605	958.52547	1146.71280	-46.42464	1006.68152	898.64410	-37.49181	1010.26207	909.15871	-86.13873	965.98915	907.35008	-99.12895	477.23660	1458.58246	-83.52858	387.96070	1145.92110	-155.71239	416.55861	1188.20091	-121.04793	545.35576	1072.11655	-296.90401	557.49458	1121.78253	-312.71019	598.83099	1126.24977	-283.25151	908.51227	874.05502	-58.63405	502.17361	878.00507	-12.18247	838.87688	492.24865	-278.52188	865.73967	484.95399	-159.94911	753.55721	471.26373	-194.79948	687.64275	441.67881	7.32047	603.05790	473.54366	68.95174	726.27327	490.47298	103.33307	856.64124	208.40939	-371.16226	797.90283	188.71861	-331.35036	878.54782	175.84572	-316.43574	686.82190	141.99804	138.32386	711.20567	177.34751	222.06078	748.45833	163.27625	147.31276	-1234.74274	976.14685	659.87129	-1365.02548	1004.32838	857.69035	-1514.24576	1052.12959	722.19734	-1401.25351	1030.56236	568.07545	-1225.09651	1429.47739	722.45941	-1307.93137	1510.17288	686.79466	-1098.58170	1556.26190	769.08928	-1278.99910	1623.65768	791.57990	-1242.12311	1615.81985	664.73938	-1448.61862	1396.63376	877.43172	-1549.48608	1110.17181	902.25800	-1493.11600	1092.06322	862.09900	-1487.33749	1134.75037	954.59068	-1489.45999	874.32335	1005.95940	-1463.52325	887.94891	1041.03035	-1424.54361	896.27335	1014.48814	-1192.31239	1385.30853	528.27137	-1221.72768	1058.63724	565.64346	-1132.81555	1085.23880	544.99931	-1190.88547	1047.84698	500.43144	-1095.45464	858.61801	579.73797	-1068.89229	876.93886	607.83211	-1099.24927	878.90274	642.52739	-1481.69022	900.03754	871.14738	-1284.21295	892.81448	578.24467	-1354.21692	451.16306	977.77992	-1435.97412	491.49548	968.95798	-1366.51947	463.46138	879.60686	-1322.84851	401.73573	726.15662	-1334.37134	421.58382	640.81192	-1428.89191	438.80417	712.34711	-1461.61652	201.46597	937.69470	-1473.52692	207.41034	858.84926	-1436.87363	164.08556	719.54124	-1416.21414	152.61559	644.05617	-1480.37903	164.81976	658.62854	495.60623	1179.35341	-114.87962	-1530.75653	214.41164	901.75812 
3	15.883	567.64626	1006.09085	-149.76163	790.92651	999.66705	-195.03635	823.14636	1055.57793	51.20227	580.65754	1059.64157	64.42577	683.49899	1465.69305	-191.75503	709.04892	1547.49664	-70.43160	600.85564	1661.65985	-284.11592	757.72118	1670.72449	-199.61569	625.14000	1676.29135	-115.23046	919.15642	1438.10852	-107.66006	993.75671	1149.86427	-5.38702	909.76288	1138.58833	12.53890	960.43297	1143.19427	-68.04443	1009.44588	894.98520	-59.29903	1013.06709	905.63362	-107.71860	968.80142	903.62106	-120.79288	478.79185	1456.34979	-96.28216	388.65498	1142.80663	-165.90803	417.02995	1185.45189	-129.92734	539.22241	1061.36574	-305.34636	552.56802	1109.80370	-322.59514	593.73779	1113.68324	-297.21399	908.94424	871.46446	-80.23300	503.79562	876.67099	-24.36858	831.65359	491.45691	-301.07475	864.62128	484.62341	-184.68294	752.07016	469.26521	-212.92154	687.56348	439.86084	-6.00121	605.04498	473.04115	57.62448	729.10637	490.07740	88.92856	847.14027	206.42931	-393.28098	791.40076	185.97853	-349.95705	873.78975	176.08849	-341.30238	686.77109	143.18454	135.14341	712.72758	180.93870	217.18916	749.14810	165.43036	144.29293	-1225.08743	975.27107	665.97702	-1350.66788	1003.37105	866.61362	-1503.36029	1051.66504	734.60274	-1394.23950	1030.36682	577.79160	-1213.53531	1428.16849	731.07224	-1296.82663	1509.11957	696.60606	-1086.55434	1554.58771	777.31148	-1266.43860	1622.51297	800.84389	-1230.74226	1614.66080	673.61000	-1434.32068	1394.78729	889.19472	-1535.88562	1108.59993	914.21082	-1480.19943	1090.56610	873.16330	-1472.98340	1132.98004	965.66872	-1474.19098	872.42989	1016.27487	-1447.78946	885.96237	1051.01677	-1409.47327	894.62814	1024.18320	-1183.91754	1384.60114	535.89329	-1210.69168	1057.88879	574.08371	-1121.55289	1085.69733	554.14307	-1179.16504	1047.11342	510.04295	-1080.85472	860.06096	591.31344	-1054.31824	879.29710	618.76163	-1085.13535	880.99060	653.90182	-1467.44507	899.44199	882.49100	-1277.49702	892.52075	584.37531	-1333.08685	450.86155	986.89980	-1416.41769	487.65297	980.55298	-1349.32755	458.88187	888.97972	-1319.57291	401.11046	728.22220	-1332.16949	421.75957	642.79671	-1425.12329	439.20559	716.10916	-1425.95825	195.40827	966.95549	-1442.03430	195.65536	888.91212	-1435.63919	164.08722	720.49995	-1415.60730	153.01142	644.85001	-1479.63181	165.67919	659.80011	496.52348	1175.87341	-126.39149	-1497.35428	202.09776	933.52905 
4	15.900	567.13215	1004.90448	-164.25562	789.89502	998.13644	-214.26815	826.26755	1052.89490	32.19554	584.45087	1058.14880	50.05686	683.86253	1462.86179	-209.24900	711.88187	1545.15442	-88.92561	600.10658	1659.41772	-300.72622	758.91098	1667.31583	-219.81554	628.22956	1674.19769	-132.51715	920.88684	1434.63989	-129.03763	995.96260	1146.42471	-27.06783	912.18437	1135.24109	-8.48461	962.49489	1139.87228	-90.10221	1011.76781	891.73386	-81.36159	1015.32944	902.12967	-129.04510	971.10336	900.08423	-142.20139	480.84919	1454.43085	-110.42669	389.41063	1139.76868	-176.25149	417.65324	1182.74582	-139.03032	532.15961	1048.95363	-312.60822	546.43627	1095.93277	-332.12532	588.59081	1099.72672	-308.05670	908.89679	869.81712	-102.83327	505.47855	875.12573	-36.65702	824.26003	490.32078	-323.55541	863.29735	485.12581	-209.79727	748.89923	468.07747	-232.15771	687.34138	437.54879	-20.28604	607.49798	472.47902	45.94525	732.12280	489.52068	73.46098	838.04306	202.16396	-410.81993	785.90187	181.87658	-362.96116	867.13074	172.34871	-358.43117	686.81839	144.78482	131.46517	713.66203	185.11343	211.84351	749.70741	168.06950	140.08267	-1215.41367	974.39842	671.35109	-1336.07574	1002.67715	875.97336	-1492.48276	1050.85449	746.87790	-1386.83014	1030.13657	587.71057	-1201.76285	1426.66306	739.59000	-1285.49820	1507.86469	706.58157	-1074.09668	1552.69012	785.21439	-1253.61366	1621.09344	810.50278	-1219.04564	1613.37112	683.01979	-1419.85901	1392.91901	901.19064	-1522.06268	1107.01462	926.43158	-1466.97342	1088.79677	884.42543	-1458.24677	1130.99693	977.01668	-1459.08096	870.34035	1026.72157	-1432.04117	883.73894	1060.98282	-1393.60489	892.16484	1033.21701	-1175.41283	1383.57086	543.79211	-1198.67691	1057.52060	584.80267	-1110.61752	1085.81284	562.87262	-1167.98683	1046.09177	519.40907	-1066.82457	861.33293	602.44617	-1040.35690	881.16318	629.50085	-1071.39023	882.97714	664.47540	-1453.14835	898.18222	893.25645	-1270.56091	892.10770	590.80830	-1312.81662	450.31307	994.85733	-1397.89276	483.11481	991.06400	-1333.48236	454.03751	897.33757	-1316.54297	400.51945	730.48889	-1329.93073	422.07886	644.81613	-1421.29059	439.68891	719.91638	-1388.99750	190.64709	994.93980	-1408.33847	185.09027	917.46170	-1434.67560	164.18270	721.58592	-1415.07416	153.49144	645.55855	-1478.78052	166.40171	661.04813	497.41154	1172.50351	-137.97544	-1462.02423	190.71589	964.92180 
